<svg width="160" height="29" viewBox="0 0 160 29" fill="none" xmlns="http://www.w3.org/2000/svg">
<path d="M153.425 8.62773C154.681 8.62773 155.787 8.93461 156.743 9.54765C157.699 10.1422 158.44 10.9876 158.965 12.0838C159.508 13.1799 159.78 14.4618 159.78 15.9295C159.78 17.3785 159.508 18.6605 158.965 19.7752C158.44 20.8713 157.699 21.7256 156.743 22.3387C155.787 22.9332 154.681 23.2303 153.425 23.2303C152.244 23.2302 151.223 22.9331 150.36 22.3387C149.792 21.9344 149.315 21.4237 148.926 20.8094V28.4695H145.917V8.96269H148.729L148.893 11.1033C149.288 10.4699 149.776 9.95061 150.36 9.54765C151.223 8.93472 152.244 8.62779 153.425 8.62773ZM74.0029 8.62773C75.3527 8.62773 76.4781 8.89754 77.3779 9.43633C78.2963 9.95649 78.9712 10.7087 79.4023 11.6932C79.8523 12.6778 80.0676 13.8671 80.0488 15.2605L79.9932 22.8963H77.2373L77.1396 21.1199C77.0477 21.2825 76.9501 21.4387 76.8438 21.5867C76.0564 22.6829 74.8277 23.2303 73.1592 23.2303C71.4721 23.2302 70.16 22.8591 69.2227 22.116C68.304 21.3729 67.8447 20.3228 67.8447 18.9666C67.8448 17.5177 68.3319 16.4216 69.3066 15.6785C70.3002 14.9168 71.6688 14.536 73.4121 14.5359H77.0371C76.9864 14.0676 76.9036 13.6495 76.7871 13.282C76.5809 12.6132 76.2527 12.1116 75.8027 11.7771C75.3528 11.4242 74.7528 11.2478 74.0029 11.2478C73.3093 11.2479 72.6997 11.3872 72.1748 11.6658C71.6689 11.9445 71.2379 12.39 70.8818 13.0027L68.2383 12.0281C68.557 11.4151 68.9599 10.8481 69.4473 10.3279C69.9534 9.80772 70.5821 9.39862 71.332 9.10136C72.0818 8.78568 72.9721 8.62775 74.0029 8.62773ZM117.479 22.8963H114.639L114.521 20.7303C114.127 21.3798 113.643 21.9173 113.063 22.3387C112.22 22.9332 111.198 23.2303 109.998 23.2303C108.723 23.2302 107.608 22.9331 106.652 22.3387C105.715 21.7256 104.974 20.8712 104.431 19.7752C103.906 18.6605 103.643 17.3785 103.643 15.9295C103.643 14.4618 103.906 13.1799 104.431 12.0838C104.974 10.9876 105.715 10.1422 106.652 9.54765C107.608 8.9347 108.723 8.62778 109.998 8.62773C111.198 8.62773 112.22 8.93456 113.063 9.54765C113.632 9.94809 114.108 10.4636 114.498 11.0916V3.38847H117.479V22.8963ZM136.382 8.62773C137.788 8.62773 139.025 8.9435 140.094 9.575C141.181 10.1881 142.025 11.0433 142.625 12.1395C143.244 13.2356 143.553 14.499 143.553 15.9295C143.553 17.36 143.253 18.6234 142.653 19.7195C142.053 20.8156 141.209 21.6797 140.122 22.3113C139.054 22.9243 137.826 23.2303 136.438 23.2303C135.032 23.2303 133.786 22.9244 132.698 22.3113C131.611 21.6797 130.758 20.8155 130.14 19.7195C129.521 18.6234 129.211 17.36 129.211 15.9295C129.211 14.499 129.511 13.2356 130.111 12.1395C130.73 11.0433 131.583 10.1881 132.67 9.575C133.757 8.94337 134.995 8.62778 136.382 8.62773ZM49.4902 3.38847C50.84 3.38847 52.0027 3.59302 52.9775 4.00175C53.9522 4.4104 54.7112 5.02342 55.2549 5.84062C55.7986 6.63951 56.0703 7.63401 56.0703 8.82304C56.0703 9.67748 55.8644 10.4482 55.4521 11.1355C55.0585 11.8044 54.4862 12.3625 53.7363 12.8084C54.6924 13.2729 55.4245 13.8953 55.9307 14.6756C56.4553 15.4557 56.7177 16.3845 56.7178 17.4617C56.7178 18.6134 56.4554 19.5984 55.9307 20.4158C55.4058 21.2147 54.665 21.8284 53.709 22.2557C52.7716 22.683 51.6463 22.8963 50.334 22.8963H43.0508V3.38847H49.4902ZM67.0752 11.7488C66.2316 11.7488 65.4249 11.8696 64.6562 12.1111C63.9065 12.334 63.2882 12.7151 62.8008 13.2537C62.3343 13.79 62.0998 14.5014 62.0977 15.3875V22.8963H59.0879V8.96269H62.0977V11.451C62.6642 10.6349 63.3575 10.0185 64.1787 9.60332C65.0972 9.13897 66.063 8.90703 67.0752 8.90703V11.7488ZM85.9395 22.8963H82.959V8.96269H85.9395V22.8963ZM96.4023 8.62773C97.5083 8.62773 98.4549 8.85093 99.2422 9.29668C100.048 9.74253 100.667 10.4391 101.099 11.3865C101.549 12.3155 101.764 13.533 101.745 15.0379V22.8963H98.7646V15.7625C98.7646 14.6108 98.6239 13.7281 98.3428 13.115C98.0803 12.4834 97.7052 12.046 97.2178 11.8045C96.7492 11.5445 96.2055 11.4148 95.5869 11.4148C94.4996 11.3963 93.6556 11.7586 93.0557 12.5018C92.5309 13.1357 92.2355 14.0186 92.1699 15.1502L92.1562 15.6502V22.8963H89.1475V8.96269H91.959L92.1094 10.9275C92.4931 10.3196 92.957 9.83049 93.5059 9.46367C94.312 8.90635 95.2776 8.62775 96.4023 8.62773ZM128.441 11.7488C127.598 11.7488 126.792 11.8697 126.023 12.1111C125.274 12.3341 124.654 12.715 124.167 13.2537C123.7 13.79 123.466 14.5014 123.464 15.3875V22.8963H120.455V8.96269H123.464V11.452C124.03 10.6354 124.723 10.0187 125.545 9.60332C126.464 9.13885 127.429 8.90703 128.441 8.90703V11.7488ZM74.3408 16.8211C73.066 16.8211 72.1751 17.0071 71.6689 17.3787C71.1629 17.7317 70.9102 18.2334 70.9102 18.8836C70.9102 19.4594 71.1351 19.9145 71.585 20.2488C72.0349 20.5646 72.6723 20.7225 73.4971 20.7225C74.2281 20.7224 74.856 20.5646 75.3809 20.2488C75.9245 19.933 76.3465 19.5054 76.6465 18.9666C76.9089 18.4789 77.0571 17.9415 77.0898 17.3543L77.0967 17.0994V16.8211H74.3408ZM110.701 11.3592C109.933 11.3592 109.248 11.554 108.648 11.9441C108.049 12.3157 107.58 12.8544 107.242 13.5603C106.905 14.2478 106.736 15.0377 106.736 15.9295C106.736 16.8211 106.905 17.6201 107.242 18.326C107.598 19.0134 108.077 19.552 108.677 19.9422C109.277 20.3323 109.961 20.5271 110.729 20.5271C111.461 20.5271 112.107 20.3323 112.67 19.9422C113.251 19.5521 113.701 19.0133 114.02 18.326C114.338 17.62 114.498 16.8212 114.498 15.9295C114.498 15.0377 114.338 14.2478 114.02 13.5603C113.701 12.8545 113.251 12.3157 112.67 11.9441C112.107 11.554 111.451 11.3592 110.701 11.3592ZM152.722 11.3592C151.972 11.3592 151.307 11.5541 150.726 11.9441C150.163 12.3157 149.722 12.8544 149.403 13.5603C149.085 14.2477 148.926 15.0377 148.926 15.9295C148.926 16.8211 149.085 17.6201 149.403 18.326C149.722 19.0134 150.163 19.552 150.726 19.9422C151.288 20.3323 151.944 20.5271 152.694 20.5271C153.463 20.5271 154.147 20.3323 154.747 19.9422C155.347 19.552 155.816 19.0133 156.153 18.326C156.509 17.6201 156.687 16.8211 156.688 15.9295C156.688 15.0377 156.518 14.2478 156.181 13.5603C155.843 12.8546 155.375 12.3157 154.775 11.9441C154.175 11.554 153.49 11.3592 152.722 11.3592ZM136.382 11.3592C135.576 11.3592 134.864 11.5541 134.245 11.9441C133.626 12.3343 133.138 12.8729 132.782 13.5603C132.445 14.2478 132.276 15.0377 132.276 15.9295C132.276 16.821 132.455 17.6104 132.811 18.2977C133.167 18.9851 133.655 19.5247 134.273 19.9148C134.911 20.3048 135.633 20.4998 136.438 20.4998C137.245 20.4998 137.948 20.305 138.548 19.9148C139.166 19.5247 139.644 18.985 139.981 18.2977C140.338 17.6103 140.516 16.8211 140.516 15.9295C140.516 15.0377 140.338 14.2478 139.981 13.5603C139.644 12.8731 139.157 12.3342 138.52 11.9441C137.901 11.554 137.188 11.3592 136.382 11.3592ZM46.0879 20.1375H50.0811C51.1684 20.1375 52.0124 19.8774 52.6123 19.3572C53.2308 18.8371 53.5399 18.1403 53.54 17.2674C53.54 16.3013 53.1927 15.5581 52.499 15.0379C51.8054 14.4991 50.8494 14.2293 49.6309 14.2293H46.0879V20.1375ZM46.0879 11.6375H49.7998C50.7744 11.6375 51.5335 11.3869 52.0771 10.8855C52.6396 10.3839 52.9209 9.6865 52.9209 8.79472C52.9208 7.86598 52.6022 7.16052 51.9648 6.67754C51.3274 6.17591 50.4557 5.92461 49.3496 5.92461H46.0879V11.6375ZM84.4492 2.69218C84.9366 2.69224 85.3491 2.86854 85.6865 3.22148C86.0426 3.55588 86.2207 3.96505 86.2207 4.44804C86.2206 4.93093 86.0426 5.34905 85.6865 5.70195C85.3491 6.05488 84.9365 6.23119 84.4492 6.23125C83.9806 6.23125 83.5681 6.05479 83.2119 5.70195C82.8558 5.34905 82.6778 4.93093 82.6777 4.44804C82.6777 3.965 82.8557 3.5559 83.2119 3.22148C83.5681 2.86857 83.9806 2.69218 84.4492 2.69218Z" fill="#000629"/>
<path d="M24.122 26.1018C23.7103 26.1018 23.3186 25.8909 23.1077 25.5093C21.4204 22.4561 23.0374 20.9296 24.8351 19.6239C25.0962 19.4331 25.3674 19.2423 25.6486 19.0515C26.8337 18.2279 28.049 17.3642 28.7219 16.3297C29.2943 15.466 29.6057 14.3813 29.6057 13.1661C29.7262 8.76716 25.7993 5.67383 22.0933 4.23764C16.8005 2.30933 11.3771 3.24336 6.82753 6.88907C5.30095 8.09426 3.32243 10.1029 2.56918 12.8849C2.0168 14.8132 2.27793 17.2939 4.14597 18.2179C5.24069 18.7401 6.48605 18.6899 8.19341 18.0471C8.84622 17.7961 9.48899 17.4747 10.1117 17.1131C9.79029 16.0586 9.73003 14.8935 9.96103 13.6984C10.4632 11.1374 11.9195 9.2191 13.3255 7.35106L13.4762 7.16023C13.8578 6.64803 14.5809 6.54759 15.0931 6.92924C15.6053 7.31088 15.7058 8.034 15.3241 8.5462L15.1735 8.73703C13.8679 10.4645 12.6325 12.1015 12.2308 14.1303C12.1304 14.6826 12.1103 15.2149 12.1705 15.7171C13.0142 15.0844 13.7674 14.4316 14.3901 13.8792C14.591 13.6984 14.8019 13.5176 15.0128 13.3268C16.6498 11.8605 18.8794 9.85183 21.2396 10.7055C22.5754 11.1173 23.429 12.3626 23.4692 14.0097C23.5496 16.8118 21.8322 19.634 19.3013 20.8693C17.0717 22.0042 14.3399 21.7832 12.3513 20.2968C11.9094 19.9654 11.5177 19.5838 11.1863 19.1619C10.4933 19.5637 9.76016 19.9252 9.01696 20.2064C7.56068 20.7488 5.37125 21.3514 3.14165 20.2868C0.51031 19.0012 -0.634623 15.697 0.349618 12.2622C1.26356 8.88768 3.60364 6.48733 5.39134 5.08128C10.5837 0.923364 16.8105 -0.141223 22.9068 2.07834C27.3761 3.80578 32.0663 7.62222 31.9156 13.2063C31.9156 14.8534 31.4737 16.38 30.6502 17.6052C29.7463 19.0012 28.2699 20.0357 26.9743 20.9496C26.7132 21.1405 26.4521 21.3212 26.201 21.502C24.5439 22.7072 24.4032 23.0788 25.1364 24.3945C25.4477 24.9569 25.2469 25.6599 24.6845 25.9612C24.5037 26.0617 24.3129 26.1018 24.122 26.1018ZM13.1247 17.8965C13.3054 18.0974 13.5063 18.2882 13.7273 18.4589C15.0128 19.4231 16.8005 19.5637 18.2668 18.8104C19.9842 17.9768 21.2195 15.9481 21.1593 14.08C21.1593 13.7084 21.0488 13.0657 20.4964 12.8949C19.4017 12.4932 17.6843 14.0298 16.5595 15.0442C16.3385 15.2451 16.1175 15.4359 15.9167 15.6167C15.1534 16.2996 14.1993 17.1131 13.1247 17.8864V17.8965Z" fill="#504DE8"/>
</svg>
